<?xml version="1.0" encoding="UTF-8"?>
<svg version="1.1" xmlns="http://www.w3.org/2000/svg" width="225" height="225">
<path d="M0 0 C9.76854527 3.78780327 17.970002 11.70784251 26.0625 18.1875 C26.99449219 17.72859375 27.92648438 17.2696875 28.88671875 16.796875 C50.16778915 6.4807378 50.16778915 6.4807378 57.09765625 7.73828125 C60.72637904 9.51200477 62.94692899 11.85044199 65.4375 14.9375 C65.91082764 15.51242188 66.38415527 16.08734375 66.87182617 16.6796875 C71.74252703 22.7645651 75.50703433 29.27192393 79.0625 36.1875 C79.61808594 37.23550781 80.17367187 38.28351562 80.74609375 39.36328125 C90.88118084 59.65872995 92.71815271 84.87356164 88.79296875 107.015625 C87.91749411 109.6186405 86.93072112 111.16793772 85.0625 113.1875 C82.86688423 113.69530869 82.86688423 113.69530869 80.25906372 113.70648193 C79.26820267 113.72039474 78.27734161 113.73430756 77.25645447 113.74864197 C76.169095 113.7436116 75.08173553 113.73858124 73.96142578 113.73339844 C72.81407455 113.74373611 71.66672333 113.75407379 70.48460388 113.76472473 C66.65886679 113.79439074 62.83365631 113.79565985 59.0078125 113.796875 C56.31734477 113.80969567 53.62692645 113.82843548 50.93649292 113.84698486 C44.53033212 113.88769785 38.12427242 113.9078935 31.7180022 113.92095876 C24.61086019 113.93645512 17.50391022 113.9749605 10.39687395 114.01547909 C1.4264104 114.06635004 -7.54398757 114.11166303 -16.5145874 114.1282959 C-17.52000836 114.13016033 -17.52000836 114.13016033 -18.54574084 114.13206244 C-21.8689016 114.13802789 -25.1920628 114.14359795 -28.51522446 114.14904022 C-35.86375672 114.16500046 -43.21083012 114.21338189 -50.55884361 114.30215073 C-54.81154931 114.35250441 -59.06431248 114.38885303 -63.317173 114.42331696 C-65.25629222 114.442973 -67.19535491 114.46962422 -69.13427353 114.50374603 C-71.75391997 114.54938539 -74.37270668 114.57101502 -76.99267578 114.58691406 C-77.74935169 114.60676109 -78.5060276 114.62660812 -79.28563309 114.64705658 C-82.76088273 114.64459501 -84.58869004 114.45555823 -87.383255 112.30795288 C-94.85250565 102.11767137 -92.06612351 79.86490473 -90.53466797 68.09033203 C-87.74584513 52.32637004 -82.2268853 37.27708837 -72.9375 24.1875 C-72.4321875 23.47078125 -71.926875 22.7540625 -71.40625 22.015625 C-69.96124891 20.03259159 -68.46879155 18.10453674 -66.9375 16.1875 C-66.35871094 15.45015625 -65.77992187 14.7128125 -65.18359375 13.953125 C-64.28833984 12.86257812 -64.28833984 12.86257812 -63.375 11.75 C-62.83746094 11.09128906 -62.29992187 10.43257812 -61.74609375 9.75390625 C-59.39253423 7.71551021 -58.04946442 7.35691927 -54.9375 7.1875 C-51.58984375 7.97265625 -51.58984375 7.97265625 -47.875 9.25 C-46.89406372 9.58366577 -46.89406372 9.58366577 -45.89331055 9.92407227 C-40.44694906 11.84402216 -35.43609637 14.37018673 -30.42578125 17.24609375 C-28.05365568 18.41805429 -28.05365568 18.41805429 -25.99609375 17.6796875 C-23.08533301 15.56980021 -20.38543314 13.24513955 -17.6875 10.875 C-5.40415425 0.34494602 -5.40415425 0.34494602 0 0 Z " fill="#383575" transform="translate(111.9375,19.8125)"/>
<path d="M0 0 C20.17655122 6.42424226 38.00707984 16.07829409 54 30 C54.70382813 30.57105469 55.40765625 31.14210938 56.1328125 31.73046875 C72.63390021 45.35195488 83.85351504 65.2675752 88 86 C51.04 86 14.08 86 -24 86 C-29.40487517 64.38049931 -26.09197667 39.4491047 -14.84863281 20.00927734 C-10.4752443 12.89438726 -5.68338689 6.13207532 0 0 Z " fill="#F49D8F" transform="translate(57,38)"/>
<path d="M0 0 C1.00598991 -0.005476 1.00598991 -0.005476 2.03230286 -0.01106262 C4.23045835 -0.01911407 6.42786436 -0.00560991 8.62597656 0.0090332 C10.15960693 0.00955222 11.69323797 0.00903291 13.22686768 0.00752258 C16.43113209 0.00761205 19.63514354 0.01799301 22.83935547 0.03613281 C26.95093173 0.05889608 31.06214123 0.05934758 35.17376328 0.05261517 C38.33584875 0.04927935 41.49785019 0.05589664 44.65991974 0.0657444 C46.17661347 0.06959765 47.69331654 0.0707441 49.21001434 0.06915855 C51.32378599 0.06878885 53.43708104 0.08137814 55.55078125 0.09765625 C57.35563995 0.10456734 57.35563995 0.10456734 59.19696045 0.11161804 C62.01660156 0.37231445 62.01660156 0.37231445 64.01660156 2.37231445 C63.04201658 19.04177841 48.82442998 34.84994169 37.01660156 45.37231445 C23.33955628 56.67276925 5.19551376 64.94689884 -12.65527344 64.70825195 C-14.98339844 64.37231445 -14.98339844 64.37231445 -16.98339844 62.37231445 C-17.25082397 60.2494812 -17.25082397 60.2494812 -17.27392578 57.59057617 C-17.28668549 56.59549042 -17.29944519 55.60040466 -17.31259155 54.57516479 C-17.3148172 53.49502106 -17.31704285 52.41487732 -17.31933594 51.30200195 C-17.32599274 50.19180695 -17.33264954 49.08161194 -17.33950806 47.93777466 C-17.34965156 45.58231262 -17.35432455 43.22682175 -17.35400391 40.87133789 C-17.35835561 37.28263161 -17.39459937 33.69517619 -17.43261719 30.10668945 C-17.43848939 27.81763115 -17.44245608 25.52856701 -17.44433594 23.23950195 C-17.45870697 22.1715036 -17.473078 21.10350525 -17.48788452 20.00314331 C-17.45120823 13.959238 -17.17597474 8.09023586 -12.98339844 3.37231445 C-8.55349478 0.60651161 -5.17888874 -0.00270198 0 0 Z " fill="#302D70" transform="translate(131.9833984375,139.627685546875)"/>
<path d="M0 0 C0.66365067 -0.00511093 1.32730133 -0.01022186 2.01106262 -0.01548767 C4.2115677 -0.02942024 6.41176065 -0.02842348 8.61230469 -0.02612305 C10.14207069 -0.0300095 11.67183561 -0.03434407 13.20159912 -0.03910828 C16.41291799 -0.04657946 19.62412697 -0.04627388 22.83544922 -0.04101562 C26.94233122 -0.035236 31.04876003 -0.05211069 35.15556717 -0.0753603 C38.3178163 -0.0901291 41.47995729 -0.0909648 44.6422348 -0.08785057 C46.15563602 -0.08836274 47.66904347 -0.09358092 49.18241119 -0.10366249 C51.30549527 -0.11606371 53.42771003 -0.10921296 55.55078125 -0.09765625 C56.75720276 -0.09828568 57.96362427 -0.0989151 59.206604 -0.0995636 C64.44592951 0.48965511 67.5868348 2.0977583 70.88476562 6.19482422 C73.49067386 11.35748693 73.02862279 16.90386682 72.92480469 22.55200195 C72.9191449 23.7184877 72.91348511 24.88497345 72.90765381 26.08680725 C72.88534553 29.79568308 72.83515675 33.50357661 72.78417969 37.2121582 C72.76410764 39.73362858 72.74585811 42.25511417 72.72949219 44.77661133 C72.68549879 50.9429595 72.61864106 57.10873865 72.53417969 63.2746582 C61.15559561 67.41967817 48.20351807 62.06976891 37.57324219 57.2824707 C16.78142117 47.30436274 -0.16972342 28.78407497 -8.46582031 7.2746582 C-8.77050781 4.49731445 -8.77050781 4.49731445 -8.46582031 2.2746582 C-5.66641597 -0.52474614 -3.92187048 0.01501746 0 0 Z " fill="#2F2C70" transform="translate(35.4658203125,139.725341796875)"/>
<path d="M0 0 C15.3381458 13.40449067 24.08167087 36.79743879 25.828125 56.59765625 C25.97515994 59.34968773 26.01304966 62.09204579 26.015625 64.84765625 C26.02787109 65.52183594 26.04011719 66.19601563 26.05273438 66.890625 C26.07108642 73.4606569 24.95172693 78.85604466 23.828125 85.59765625 C12.278125 85.59765625 0.728125 85.59765625 -11.171875 85.59765625 C-12.14125 82.48328125 -13.110625 79.36890625 -14.109375 76.16015625 C-20.78887273 55.74183913 -31.46264101 39.25960797 -47.171875 24.59765625 C-43.83943835 20.93785176 -40.15368402 18.43726716 -35.984375 15.84765625 C-35.28892578 15.41445068 -34.59347656 14.98124512 -33.87695312 14.53491211 C-26.28708868 9.90994444 -18.34238715 6.08059893 -10.171875 2.59765625 C-9.46675781 2.2816748 -8.76164062 1.96569336 -8.03515625 1.64013672 C-2.87628202 -0.53283642 -2.87628202 -0.53283642 0 0 Z " fill="#F49C8F" transform="translate(166.171875,38.40234375)"/>
<path d="M0 0 C7.45639508 -0.07608273 14.91269 -0.12861377 22.36938477 -0.16479492 C24.90588115 -0.17987863 27.44235148 -0.20034831 29.97875977 -0.22631836 C33.62522822 -0.26271881 37.27135173 -0.27973082 40.91796875 -0.29296875 C42.61822456 -0.31619453 42.61822456 -0.31619453 44.35282898 -0.33988953 C45.41355118 -0.34011612 46.47427338 -0.34034271 47.56713867 -0.34057617 C48.49757492 -0.34723801 49.42801117 -0.35389984 50.38664246 -0.36076355 C53.57157435 0.07890355 55.43745592 1.07923968 58 3 C59.25433458 6.76300374 59.10695422 10.27210909 59.0625 14.1875 C59.05798828 14.93708984 59.05347656 15.68667969 59.04882812 16.45898438 C59.03706354 18.30602383 59.01912865 20.15302213 59 22 C54.38352165 20.58940939 50.01314908 19.09865437 45.75 16.8125 C42.7033818 15.21925855 40.50214723 14.46937163 37 15 C35.70366379 16.06645115 35.70366379 16.06645115 35.9375 18.5625 C35.958125 19.366875 35.97875 20.17125 36 21 C39.08297412 22.62568217 42.16644189 24.25042584 45.25 25.875 C46.12269531 26.33519531 46.99539062 26.79539063 47.89453125 27.26953125 C48.73886719 27.71425781 49.58320312 28.15898437 50.453125 28.6171875 C51.22817383 29.02565918 52.00322266 29.43413086 52.80175781 29.85498047 C54.85654892 30.92527926 56.92776333 31.96388167 59 33 C59 36.96 59 40.92 59 45 C40.58764218 44.43346591 25.04691675 33.98290625 12.5859375 21.046875 C7.47856773 15.02912814 1.70882157 7.82276968 0 0 Z " fill="#9BA2D0" transform="translate(40,149)"/>
<path d="M0 0 C1.04085251 0.00007553 2.08170502 0.00015106 3.15409851 0.00022888 C4.27605118 0.00539017 5.39800385 0.01055145 6.55395508 0.01586914 C7.70390457 0.01728409 8.85385406 0.01869904 10.03865051 0.02015686 C13.71695541 0.02576111 17.39519978 0.03831435 21.07348633 0.05102539 C23.56502191 0.05603984 26.05655844 0.06060284 28.5480957 0.06469727 C34.66074662 0.07573192 40.77336215 0.09247421 46.88598633 0.11352539 C44.61483514 13.18773089 32.45933068 24.85307263 22.07348633 32.42602539 C12.7074384 39.00494923 0.53293801 45.11352539 -11.11401367 45.11352539 C-11.11401367 41.15352539 -11.11401367 37.19352539 -11.11401367 33.11352539 C-9.36024414 32.19120117 -9.36024414 32.19120117 -7.57104492 31.25024414 C-6.02282877 30.43391199 -4.47465386 29.61750161 -2.92651367 28.80102539 C-2.15758789 28.3969043 -1.38866211 27.9927832 -0.59643555 27.57641602 C1.57020665 26.43265211 3.72950983 25.27632104 5.88598633 24.11352539 C6.88500977 23.57598633 7.8840332 23.03844727 8.91333008 22.48461914 C9.56430664 22.0321582 10.2152832 21.57969727 10.88598633 21.11352539 C11.38658549 18.52834952 11.38658549 18.52834952 10.88598633 16.11352539 C10.55598633 15.78352539 10.22598633 15.45352539 9.88598633 15.11352539 C3.61340429 15.2529161 -1.06990668 17.91936545 -6.53979492 20.83618164 C-9.11401367 22.11352539 -9.11401367 22.11352539 -11.11401367 22.11352539 C-11.19487743 19.17547544 -11.25444197 16.23964464 -11.30151367 13.30102539 C-11.32665039 12.46764648 -11.35178711 11.63426758 -11.37768555 10.77563477 C-11.38735352 9.97319336 -11.39702148 9.17075195 -11.40698242 8.34399414 C-11.42269287 7.60560303 -11.43840332 6.86721191 -11.45458984 6.10644531 C-11.01445174 3.5309275 -10.1542236 2.7001564 -8.11401367 1.11352539 C-5.11034854 0.11230368 -3.13661774 -0.00759472 0 0 Z " fill="#9CA2D1" transform="translate(136.114013671875,148.886474609375)"/>
<path d="M0 0 C1.71745378 1.00541334 3.42352687 2.03027297 5.125 3.0625 C6.55199219 3.91521484 6.55199219 3.91521484 8.0078125 4.78515625 C11 7 11 7 17 14 C11.72 17.63 6.44 21.26 1 25 C-2.84449092 23.07775454 -6.24912842 20.83715144 -9.75 18.375 C-10.35199219 17.95476563 -10.95398438 17.53453125 -11.57421875 17.1015625 C-13.05113043 16.07006863 -14.52579194 15.03535421 -16 14 C-11.38427208 8.04814032 -6.2989904 4.09558862 0 0 Z " fill="#F29C8F" transform="translate(111,31)"/>
</svg>
